<svg width="14" height="14" viewBox="0 0 14 14" fill="none" xmlns="http://www.w3.org/2000/svg">
<path d="M13.9925 6.915C13.7115 5.35443 12.9224 3.93053 11.7482 2.86491C10.574 1.79929 9.08043 1.15172 7.5 1.023V0H6.5V1.023C4.91956 1.15172 3.426 1.79929 2.25177 2.86491C1.07755 3.93053 0.288521 5.35443 0.00749566 6.915C-0.00868698 7.00908 0.00240301 7.10583 0.0394551 7.19382C0.0765071 7.2818 0.137972 7.35733 0.216586 7.4115C0.2952 7.46566 0.387676 7.49618 0.483086 7.49946C0.578495 7.50274 0.672849 7.47864 0.754996 7.43C1.12249 7.17478 1.55332 7.02598 2 7C2.42451 7.01053 2.83888 7.1319 3.202 7.35205C3.56511 7.5722 3.86435 7.88348 4.07 8.255C4.11768 8.32512 4.18179 8.38252 4.25674 8.42219C4.33168 8.46186 4.4152 8.4826 4.5 8.4826C4.58479 8.4826 4.66831 8.46186 4.74325 8.42219C4.8182 8.38252 4.88231 8.32512 4.93 8.255C5.0977 7.96064 5.32326 7.70328 5.59308 7.49843C5.8629 7.29357 6.1714 7.14545 6.5 7.063V11.75C6.5 12.0815 6.3683 12.3995 6.13388 12.6339C5.89946 12.8683 5.58152 13 5.25 13C4.91848 13 4.60053 12.8683 4.36611 12.6339C4.13169 12.3995 4 12.0815 4 11.75V11.5H3V11.75C3 12.3467 3.23705 12.919 3.65901 13.341C4.08096 13.7629 4.65326 14 5.25 14C5.84673 14 6.41903 13.7629 6.84099 13.341C7.26294 12.919 7.5 12.3467 7.5 11.75V7.0625C7.82867 7.14507 8.13722 7.29334 8.40705 7.49837C8.67688 7.70341 8.90239 7.96096 9.06999 8.2555C9.11427 8.33011 9.17719 8.39192 9.25258 8.43485C9.32797 8.47778 9.41324 8.50035 9.5 8.50035C9.58675 8.50035 9.67202 8.47778 9.74741 8.43485C9.8228 8.39192 9.88572 8.33011 9.93 8.2555C10.1356 7.88389 10.4348 7.5725 10.7979 7.35226C11.161 7.13202 11.5754 7.01058 12 7C12.4467 7.02598 12.8775 7.17478 13.245 7.43C13.3272 7.47879 13.4216 7.50301 13.5171 7.49981C13.6126 7.4966 13.7051 7.4661 13.7838 7.41191C13.8625 7.35773 13.9241 7.28213 13.9611 7.19406C13.9982 7.106 14.0088 7.00916 13.9925 6.915ZM2 6C1.74573 5.99994 1.49273 6.03579 1.2485 6.1065C1.58788 5.16105 2.1512 4.31185 2.89028 3.63155C3.62936 2.95124 4.52222 2.46005 5.4925 2.2C4.50083 3.47746 3.96475 5.04981 3.9695 6.667C3.40306 6.2363 2.71158 6.00212 2 6ZM7 6C6.26279 6.00329 5.54825 6.25521 4.972 6.715C4.9905 5.605 5.276 3.47 7 2.127C8.715 3.4655 9.0045 5.602 9.026 6.7135C8.45008 6.25467 7.73634 6.00331 7 6ZM12 6C11.2885 6.00197 10.597 6.23597 10.0305 6.6665C10.0352 5.04931 9.49916 3.47696 8.50749 2.1995C9.47782 2.4596 10.3707 2.95086 11.1098 3.63126C11.8489 4.31166 12.4122 5.16095 12.7515 6.1065C12.5073 6.03579 12.2543 5.99994 12 6Z" fill="black"/>
</svg>
