<svg width="48" height="48" viewBox="0 0 48 48" fill="none" xmlns="http://www.w3.org/2000/svg">
<path fill-rule="evenodd" clip-rule="evenodd" d="M33.8127 21.0641C33.8127 21.0641 33.997 22 34.0599 22.009C37.4537 22.4929 40 24.4725 40 28C40 31.866 36.866 35 33 35H15C11.134 35 8 31.866 8 28C8 24.4725 10.6092 21.5544 14.003 21.0705C14.0659 21.0615 14.1275 21.0596 14.1873 21.0641C15.0889 16.4677 19.1395 13 24 13C28.8605 13 32.9111 16.4677 33.8127 21.0641Z" fill="#F3F3F3"/>
<path d="M24 12.5C29.5362 12.5 34.1173 16.5476 34.7705 21.7949C38.0263 22.4123 40.4998 25.2072 40.5 28.583C40.5 32.4152 37.3142 35.4998 33.4121 35.5H15.5293C11.1075 35.4999 7.50018 32.0054 7.5 27.667C7.5 23.9816 10.1044 20.9036 13.5977 20.0615C14.9334 15.6822 19.0901 12.5 24 12.5Z" fill="#D9D9D9" stroke="#231815" stroke-linecap="round" stroke-linejoin="round"/>
</svg>
