<svg width="128" height="128" viewBox="0 0 128 128" fill="none" xmlns="http://www.w3.org/2000/svg">
<path d="M74.6035 9C95.2897 9 112.06 25.7699 112.06 46.4561C112.06 46.9143 112.051 47.3707 112.034 47.8252C117.972 51.0956 122 57.4159 122 64.6807C122 75.3013 113.39 83.911 102.77 83.9111H33.1836C18.1706 83.9111 6 71.7405 6 56.7275C6.00015 41.7147 18.1707 29.5439 33.1836 29.5439C35.7765 29.544 38.287 29.909 40.666 30.5889C46.6376 17.8377 59.5861 9.00001 74.6035 9Z" fill="#D9D9D9" stroke="black" stroke-width="4"/>
<path d="M32.8779 111.147L36.3125 118.309C36.7197 119.042 36.9531 119.887 36.9531 120.784C36.9531 123.556 34.742 125.834 31.9766 125.834C29.211 125.834 27 123.556 27 120.784C27 119.891 27.2309 119.049 27.6348 118.318L31.0742 111.147L31.9766 109.268L32.8779 111.147ZM56.7363 111.147L60.1758 118.318C60.5796 119.049 60.8105 119.891 60.8105 120.784C60.8105 123.556 58.5996 125.834 55.834 125.834C53.0686 125.834 50.8584 123.556 50.8584 120.784C50.8584 119.887 51.09 119.042 51.4971 118.309L54.9326 111.147L55.834 109.268L56.7363 111.147ZM79.9316 111.147L83.3682 118.312C83.774 119.045 84.0058 119.889 84.0059 120.784C84.0059 123.556 81.7949 125.834 79.0293 125.834C76.2639 125.834 74.0537 123.556 74.0537 120.784C74.0537 119.888 74.2848 119.042 74.6914 118.31L78.1279 111.147L79.0293 109.268L79.9316 111.147ZM44.8066 96.5674L48.2432 103.73C48.6496 104.463 48.8818 105.308 48.8818 106.204C48.8818 108.976 46.6708 111.255 43.9053 111.255C41.1397 111.255 38.9287 108.976 38.9287 106.204C38.9288 105.307 39.1613 104.462 39.5684 103.729L43.0039 96.5674L43.9053 94.6875L44.8066 96.5674ZM68.002 96.5674L71.4365 103.729C71.8438 104.462 72.0771 105.307 72.0771 106.204C72.0771 108.976 69.8662 111.255 67.1006 111.255C64.335 111.255 62.124 108.976 62.124 106.204C62.1241 105.307 62.3566 104.462 62.7637 103.729L66.1992 96.5674L67.1006 94.6875L68.002 96.5674ZM91.8604 96.5674L95.2969 103.732C95.7027 104.465 95.9345 105.308 95.9346 106.204C95.9346 108.976 93.7244 111.255 90.959 111.255C88.1934 111.255 85.9824 108.976 85.9824 106.204C85.9825 105.309 86.2134 104.465 86.6191 103.732L90.0566 96.5674L90.959 94.6875L91.8604 96.5674Z" fill="#64D2FF" stroke="black" stroke-width="2"/>
</svg>
