<svg width="36" height="40" viewBox="0 0 36 40" fill="none" xmlns="http://www.w3.org/2000/svg">
<path d="M18 0.75C18.9232 0.750006 19.6748 1.49392 19.6748 2.41504V6.96973L21.7451 5.14258L21.8779 5.03711C22.5611 4.54665 23.5245 4.63415 24.1045 5.26562L24.2139 5.39648C24.6835 6.02589 24.6366 6.89764 24.1035 7.47461L23.9824 7.59375L19.6748 11.3975V17.1934L25.0967 14.123L26.2227 8.93262L26.2666 8.76855C26.5274 7.97159 27.3635 7.48742 28.207 7.66309L28.3721 7.70703C29.1246 7.94405 29.6119 8.67362 29.5254 9.45215L29.4971 9.61914L28.999 11.9121L32.6846 9.82715L32.8359 9.75098C33.6045 9.41281 34.527 9.69641 34.9609 10.4336L35.0391 10.584C35.3657 11.2958 35.138 12.1375 34.498 12.5908L34.3545 12.6816L30.3447 14.9512L32.9316 15.7764L33.0918 15.8369C33.8671 16.1726 34.2788 17.0393 34.0088 17.8545C33.7394 18.6676 32.8908 19.1294 32.0645 18.9541L31.8994 18.9102L26.4316 17.168L21.4619 19.9814L26.8613 23.0391L31.9648 21.4141L32.1299 21.3701C32.9562 21.1949 33.8048 21.6567 34.0742 22.4697C34.3443 23.2849 33.9326 24.1516 33.1572 24.4873L32.9971 24.5479L30.7754 25.2549L34.418 27.3184L34.5605 27.4092C35.2464 27.8948 35.4589 28.8264 35.0234 29.5664C34.5894 30.3037 33.6671 30.5874 32.8984 30.249L32.7471 30.1729L28.6953 27.8789L29.2725 30.541L29.3008 30.708C29.387 31.4864 28.9 32.2162 28.1475 32.4531L27.9824 32.4961C27.1387 32.6719 26.3026 32.1879 26.042 31.3906L25.998 31.2275L24.793 25.6689L19.6748 22.7705V29.0166L23.6973 32.5703L23.8193 32.6895C24.3522 33.2664 24.3983 34.1383 23.9287 34.7676L23.8203 34.8984C23.2403 35.5302 22.2761 35.6177 21.5928 35.127L21.46 35.0215L19.6748 33.4443V37.585C19.6748 38.5061 18.9232 39.25 18 39.25C17.0768 39.25 16.3252 38.5061 16.3252 37.585V33.0615L14.292 34.8574C13.6491 35.4252 12.6809 35.4125 12.0527 34.8535L11.9316 34.7344C11.3106 34.0578 11.3661 33.0143 12.0547 32.4062L16.3252 28.6338V22.8906L10.8105 26.0137L9.69629 31.1572C9.5146 31.9944 8.71994 32.5416 7.87988 32.4521L7.71191 32.4258C6.8105 32.2379 6.22697 31.3646 6.4209 30.4697L6.90723 28.2236L3.25293 30.2939C2.45807 30.7438 1.43949 30.4736 0.976562 29.6875C0.511979 28.8983 0.784338 27.8903 1.58203 27.4385L5.62012 25.1514L2.9873 24.3125C2.10986 24.0329 1.62226 23.1049 1.91016 22.2354L1.97168 22.0771C2.31561 21.3121 3.19873 20.9171 4.01953 21.1787L9.5332 22.9355L14.75 19.9814L9.22949 16.8555L4.0791 18.4971C3.25837 18.7585 2.37612 18.3636 2.03223 17.5986L1.9707 17.4404C1.68287 16.571 2.16966 15.643 3.04688 15.3633L5.31641 14.6396L1.64551 12.5615C0.847869 12.1098 0.57485 11.1027 1.03906 10.3135C1.50189 9.52723 2.52052 9.25631 3.31543 9.70605L7.33691 11.9834L6.77148 9.37012C6.57768 8.47537 7.16028 7.60303 8.06152 7.41504L8.23047 7.38867C9.07057 7.29937 9.86541 7.84625 10.0469 8.68359L11.2402 14.1934L16.3252 17.0732V10.9492L12.3398 7.42969C11.6512 6.82157 11.5957 5.77818 12.2168 5.10156L12.3379 4.98242C12.966 4.42357 13.9333 4.411 14.5762 4.97852L16.3252 6.52148V2.41504C16.3252 1.49392 17.0768 0.75 18 0.75Z" fill="#64D2FF" stroke="black" stroke-width="0.5"/>
</svg>
